# xmcd CD database file
#
# Track frame offsets:
#	150
#	14148
#	27163
#	42488
#	61055
#	76456
#	95131
#	113594
#	131935
#	146034
#	158139
#	181185
#	198335
#	221267
#	242711
#	258374
#	276102
#	290117
#
# Disc length: 4091 seconds
#
# Revision: 3
# Processed by: cddbd v1.5.1PL2 Copyright (c) Steve Scherf et al.
# Submitted via: CDex 1.70beta2
#
DISCID=0e0ff912
DTITLE=Уматурман - Ночной Дозор
DYEAR=2004
DGENRE=Punk
TTITLE0=Ночной Дозор
TTITLE1=Прасковья
TTITLE2=Эй, Толстый!
TTITLE3=Ты Ушла
TTITLE4=Ты Далеко
TTITLE5=Тайд
TTITLE6=Ад
TTITLE7=Дай
TTITLE8=Здравствуй Дорогая
TTITLE9=Китаец Чень Суй
TTITLE10=Зачем?
TTITLE11=Ни Кола Ни Дачки
TTITLE12=В Процессе
TTITLE13=Раненный В Висок
TTITLE14=Стрела
TTITLE15=Объясни мне
TTITLE16=Прасковья (remix)
TTITLE17=Ночной Дозор (radio edit)
EXTD=YEAR: 2004
EXTT0=
EXTT1=
EXTT2=
EXTT3=
EXTT4=
EXTT5=
EXTT6=
EXTT7=
EXTT8=
EXTT9=
EXTT10=
EXTT11=
EXTT12=
EXTT13=
EXTT14=
EXTT15=
EXTT16=
EXTT17=
PLAYORDER=
